<svg id="visual" viewBox="0 0 1080 1920" width="1080" height="1920" xmlns="http://www.w3.org/2000/svg" xmlns:xlink="http://www.w3.org/1999/xlink" version="1.1"><rect x="0" y="0" width="1080" height="1920" fill="#1b1b1a"></rect><defs><linearGradient id="grad1_0" x1="0%" y1="100%" x2="100%" y2="0%"><stop offset="30%" stop-color="#1b1b1a" stop-opacity="1"></stop><stop offset="70%" stop-color="#1b1b1a" stop-opacity="1"></stop></linearGradient></defs><defs><linearGradient id="grad2_0" x1="0%" y1="100%" x2="100%" y2="0%"><stop offset="30%" stop-color="#1b1b1a" stop-opacity="1"></stop><stop offset="70%" stop-color="#1b1b1a" stop-opacity="1"></stop></linearGradient></defs><g transform="translate(1080, 1920)"><path d="M-486 0C-448.2 -42.3 -410.4 -84.6 -389 -126.4C-367.6 -168.2 -362.5 -209.5 -347.9 -252.7C-333.2 -296 -309 -341.2 -275.1 -378.6C-241.2 -416 -197.6 -445.6 -150.2 -462.2C-102.7 -478.8 -51.4 -482.4 0 -486L0 0Z" fill="#3ac4ce"></path></g><g transform="translate(0, 0)"><path d="M486 0C489 56.6 492 113.1 462.2 150.2C432.4 187.3 369.8 204.9 335.7 243.9C301.7 283 296.1 343.5 262.7 361.6C229.4 379.7 168.3 355.4 119.9 369C71.5 382.7 35.7 434.3 0 486L0 0Z" fill="#3ac4ce"></path></g></svg>