<svg id="visual" viewBox="0 0 1920 1080" width="1920" height="1080" xmlns="http://www.w3.org/2000/svg" xmlns:xlink="http://www.w3.org/1999/xlink" version="1.1"><rect x="0" y="0" width="1920" height="1080" fill="#1b1b1a"></rect><defs><linearGradient id="grad1_0" x1="43.8%" y1="100%" x2="100%" y2="0%"><stop offset="14.444444444444446%" stop-color="#1b1b1a" stop-opacity="1"></stop><stop offset="85.55555555555554%" stop-color="#1b1b1a" stop-opacity="1"></stop></linearGradient></defs><defs><linearGradient id="grad2_0" x1="0%" y1="100%" x2="56.3%" y2="0%"><stop offset="14.444444444444446%" stop-color="#1b1b1a" stop-opacity="1"></stop><stop offset="85.55555555555554%" stop-color="#1b1b1a" stop-opacity="1"></stop></linearGradient></defs><g transform="translate(1920, 1080)"><path d="M-486 0C-477.6 -52.9 -469.2 -105.8 -436.5 -141.8C-403.8 -177.9 -346.9 -197.1 -314.7 -228.6C-282.6 -260.2 -275.3 -303.9 -253.3 -348.7C-231.4 -393.4 -194.8 -439.2 -150.2 -462.2C-105.5 -485.3 -52.8 -485.6 0 -486L0 0Z" fill="#b74b4a"></path></g><g transform="translate(0, 0)"><path d="M486 0C487.9 54.5 489.7 108.9 462.2 150.2C434.7 191.4 377.8 219.5 334.9 243.3C292.1 267.2 263.3 286.9 236.9 326C210.5 365.2 186.5 423.8 147.4 453.7C108.3 483.6 54.2 484.8 0 486L0 0Z" fill="#b74b4a"></path></g></svg>