<?xml version="1.0" standalone="no"?><svg xmlns="http://www.w3.org/2000/svg" viewBox="0 60 1300 2000"><path fill="#903ace" fill-opacity="1" d="M0,96L24,128C48,160,96,224,144,250.7C192,277,240,267,288,240C336,213,384,171,432,149.3C480,128,528,128,576,149.3C624,171,672,213,720,224C768,235,816,213,864,192C912,171,960,149,1008,160C1056,171,1104,213,1152,224C1200,235,1248,213,1296,181.3C1344,149,1392,107,1416,85.3L1440,64L1440,0L1416,0C1392,0,1344,0,1296,0C1248,0,1200,0,1152,0C1104,0,1056,0,1008,0C960,0,912,0,864,0C816,0,768,0,720,0C672,0,624,0,576,0C528,0,480,0,432,0C384,0,336,0,288,0C240,0,192,0,144,0C96,0,48,0,24,0L0,0Z"></path></svg>
